<svg xmlns="http://www.w3.org/2000/svg" width="19.2" height="18.5" viewBox="43.7 455.4 19.2 18.5" fill="none"><path fill="#194F37" d="M57.6875 464C58.3031 464 58.9126 464.121 59.4813 464.357C60.05 464.592 60.5668 464.938 61.0021 465.373C61.4373 465.808 61.7826 466.325 62.0182 466.894C62.2538 467.462 62.375 468.072 62.375 468.688C62.375 469.303 62.2538 469.913 62.0182 470.481C61.7826 471.05 61.4373 471.567 61.0021 472.002C60.5668 472.437 60.05 472.783 59.4813 473.018C58.9126 473.254 58.3031 473.375 57.6875 473.375C56.4443 473.375 55.252 472.881 54.3729 472.002C53.4939 471.123 53 469.931 53 468.688C53 467.444 53.4939 466.252 54.3729 465.373C55.252 464.494 56.4443 464 57.6875 464ZM57.8438 465.25C57.7194 465.25 57.6002 465.299 57.5123 465.387C57.4244 465.475 57.375 465.594 57.375 465.719V468.062H55.0312C54.9069 468.062 54.7877 468.112 54.6998 468.2C54.6119 468.288 54.5625 468.407 54.5625 468.531C54.5625 468.656 54.6119 468.775 54.6998 468.863C54.7877 468.951 54.9069 469 55.0312 469H57.375V471.344C57.375 471.468 57.4244 471.587 57.5123 471.675C57.6002 471.763 57.7194 471.812 57.8438 471.812C57.9681 471.812 58.0873 471.763 58.1752 471.675C58.2631 471.587 58.3125 471.468 58.3125 471.344V469H60.6562C60.7806 469 60.8998 468.951 60.9877 468.863C61.0756 468.775 61.125 468.656 61.125 468.531C61.125 468.407 61.0756 468.288 60.9877 468.2C60.8998 468.112 60.7806 468.062 60.6562 468.062H58.3125V465.719C58.3125 465.594 58.2631 465.475 58.1752 465.387C58.0873 465.299 57.9681 465.25 57.8438 465.25ZM58.9375 460.25C59.6834 460.25 60.3988 460.546 60.9262 461.074C61.4537 461.601 61.75 462.317 61.75 463.062V464.798C61.3819 464.414 60.961 464.083 60.5 463.817V463.062C60.5 462.648 60.3354 462.251 60.0424 461.958C59.7493 461.665 59.3519 461.5 58.9375 461.5H47.0625C46.6481 461.5 46.2507 461.665 45.9576 461.958C45.6646 462.251 45.5 462.648 45.5 463.062V469.312C45.5 469.727 45.6646 470.124 45.9576 470.417C46.2507 470.71 46.6481 470.875 47.0625 470.875H52.5037C52.6932 471.322 52.9396 471.742 53.2369 472.125H47.0625C46.3166 472.125 45.6012 471.829 45.0738 471.301C44.5463 470.774 44.25 470.058 44.25 469.312V463.062C44.25 462.317 44.5463 461.601 45.0738 461.074C45.6012 460.546 46.3166 460.25 47.0625 460.25H58.9375ZM51.125 466.5C51.2908 466.5 51.4497 466.566 51.5669 466.683C51.6842 466.8 51.75 466.959 51.75 467.125C51.75 467.291 51.6842 467.45 51.5669 467.567C51.4497 467.684 51.2908 467.75 51.125 467.75H47.375C47.2092 467.75 47.0503 467.684 46.9331 467.567C46.8158 467.45 46.75 467.291 46.75 467.125C46.75 466.959 46.8158 466.8 46.9331 466.683C47.0503 466.566 47.2092 466.5 47.375 466.5H51.125ZM53 463.375C53.1658 463.375 53.3247 463.441 53.4419 463.558C53.5592 463.675 53.625 463.834 53.625 464C53.625 464.166 53.5592 464.325 53.4419 464.442C53.3247 464.559 53.1658 464.625 53 464.625H47.375C47.2092 464.625 47.0503 464.559 46.9331 464.442C46.8158 464.325 46.75 464.166 46.75 464C46.75 463.834 46.8158 463.675 46.9331 463.558C47.0503 463.441 47.2092 463.375 47.375 463.375H53ZM60.1875 455.875C60.6019 455.875 60.9993 456.04 61.2924 456.333C61.5854 456.626 61.75 457.023 61.75 457.438C61.75 457.852 61.5854 458.249 61.2924 458.542C60.9993 458.835 60.6019 459 60.1875 459H45.8125C45.3981 459 45.0007 458.835 44.7076 458.542C44.4146 458.249 44.25 457.852 44.25 457.438C44.25 457.023 44.4146 456.626 44.7076 456.333C45.0007 456.04 45.3981 455.875 45.8125 455.875H60.1875Z"/></svg>